STARTFONT 2.1
COMMENT Exported by Fony v1.4.7
FONT u8g2_font_sseg_w10_tnc
SIZE 16 96 96
FONTBOUNDINGBOX 10 15 0 -7
STARTPROPERTIES 6
COPYRIGHT "Created with Fony 1.4.7"
RESOLUTION_X 96
RESOLUTION_Y 96
FONT_ASCENT 9
FONT_DESCENT 7
DEFAULT_CHAR 0
ENDPROPERTIES
CHARS 13
STARTCHAR 046
ENCODING 46
SWIDTH 720 0
DWIDTH 10 0
BBX 3 3 3 -6
BITMAP
40
E0
40
ENDCHAR
STARTCHAR 047
ENCODING 47
SWIDTH 720 0
DWIDTH 10 0
BBX 9 13 0 -5
BITMAP
0080
0180
0380
0380
0380
3E80
7F00
BE00
E000
E000
E000
C000
8000
ENDCHAR
STARTCHAR 048
ENCODING 48
SWIDTH 720 0
DWIDTH 10 0
BBX 9 15 0 -6
BITMAP
7F00
BE80
DD80
E380
E380
C180
8080
0000
8080
C180
E380
E380
DD80
BE80
7F00
ENDCHAR
STARTCHAR 049
ENCODING 49
SWIDTH 720 0
DWIDTH 10 0
BBX 3 13 6 -5
BITMAP
20
60
E0
E0
60
20
00
20
60
E0
E0
60
20
ENDCHAR
STARTCHAR 050
ENCODING 50
SWIDTH 720 0
DWIDTH 10 0
BBX 9 15 0 -6
BITMAP
7F00
3E80
1D80
0380
0380
0380
3E80
7F00
BE00
E000
E000
E000
DC00
BE00
7F00
ENDCHAR
STARTCHAR 051
ENCODING 51
SWIDTH 720 0
DWIDTH 10 0
BBX 8 15 1 -6
BITMAP
FE
7D
3B
07
07
07
7D
FE
7D
07
07
07
3B
7D
FE
ENDCHAR
STARTCHAR 052
ENCODING 52
SWIDTH 720 0
DWIDTH 10 0
BBX 9 13 0 -5
BITMAP
8080
C180
E380
E380
E380
BE80
7F00
3E80
0380
0380
0380
0180
0080
ENDCHAR
STARTCHAR 053
ENCODING 53
SWIDTH 720 0
DWIDTH 10 0
BBX 9 15 0 -6
BITMAP
7F00
BE00
DC00
E000
E000
E000
BE00
7F00
3E80
0380
0380
0380
1D80
3E80
7F00
ENDCHAR
STARTCHAR 054
ENCODING 54
SWIDTH 720 0
DWIDTH 10 0
BBX 9 15 0 -6
BITMAP
7F00
BE00
DC00
E000
E000
E000
BE00
7F00
BE80
E380
E380
E380
DD80
BE80
7F00
ENDCHAR
STARTCHAR 055
ENCODING 55
SWIDTH 720 0
DWIDTH 10 0
BBX 8 14 1 -5
BITMAP
FE
7D
3B
07
07
03
01
00
01
03
07
07
03
01
ENDCHAR
STARTCHAR 056
ENCODING 56
SWIDTH 720 0
DWIDTH 10 0
BBX 9 15 0 -6
BITMAP
7F00
BE80
DD80
E380
E380
E380
BE80
7F00
BE80
E380
E380
E380
DD80
BE80
7F00
ENDCHAR
STARTCHAR 057
ENCODING 57
SWIDTH 720 0
DWIDTH 10 0
BBX 9 15 0 -6
BITMAP
7F00
BE80
DD80
E380
E380
E380
BE80
7F00
3E80
0380
0380
0380
1D80
3E80
7F00
ENDCHAR
STARTCHAR 058
ENCODING 58
SWIDTH 720 0
DWIDTH 10 0
BBX 3 9 3 -3
BITMAP
E0
E0
E0
00
00
00
E0
E0
E0
ENDCHAR
ENDFONT
