STARTFONT 2.1
COMMENT Exported by Fony v1.4.7
FONT u8g2_font_sseg_w8_tnc
SIZE 14 96 96
FONTBOUNDINGBOX 10 13 0 -5
STARTPROPERTIES 6
COPYRIGHT "Created with Fony 1.4.7"
RESOLUTION_X 96
RESOLUTION_Y 96
FONT_ASCENT 9
FONT_DESCENT 5
DEFAULT_CHAR 0
ENDPROPERTIES
CHARS 16
STARTCHAR 045
ENCODING 45
SWIDTH 576 0
DWIDTH 8 0
BBX 8 14 0 -5
BITMAP
00
00
00
00
00
38
7C
38
00
00
00
00
00
00
ENDCHAR
STARTCHAR 046
ENCODING 46
SWIDTH 576 0
DWIDTH 8 0
BBX 8 14 0 -5
BITMAP
00
00
00
00
00
00
00
00
00
00
20
70
20
00
ENDCHAR
STARTCHAR 047
ENCODING 47
SWIDTH 576 0
DWIDTH 8 0
BBX 8 14 0 -5
BITMAP
00
02
06
06
06
3A
7C
B8
C0
C0
C0
80
00
00
ENDCHAR
STARTCHAR 048
ENCODING 48
SWIDTH 576 0
DWIDTH 8 0
BBX 8 14 0 -5
BITMAP
7C
BA
C6
C6
C6
82
00
82
C6
C6
C6
BA
7C
00
ENDCHAR
STARTCHAR 049
ENCODING 49
SWIDTH 576 0
DWIDTH 8 0
BBX 8 14 0 -5
BITMAP
00
02
06
06
06
02
00
02
06
06
06
02
00
00
ENDCHAR
STARTCHAR 050
ENCODING 50
SWIDTH 576 0
DWIDTH 8 0
BBX 8 14 0 -5
BITMAP
7C
3A
06
06
06
3A
7C
B8
C0
C0
C0
B8
7C
00
ENDCHAR
STARTCHAR 051
ENCODING 51
SWIDTH 576 0
DWIDTH 8 0
BBX 8 14 0 -5
BITMAP
7C
3A
06
06
06
3A
7C
3A
06
06
06
3A
7C
00
ENDCHAR
STARTCHAR 052
ENCODING 52
SWIDTH 576 0
DWIDTH 8 0
BBX 8 14 0 -5
BITMAP
00
82
C6
C6
C6
BA
7C
3A
06
06
06
02
00
00
ENDCHAR
STARTCHAR 053
ENCODING 53
SWIDTH 576 0
DWIDTH 8 0
BBX 8 14 0 -5
BITMAP
7C
B8
C0
C0
C0
B8
7C
3A
06
06
06
3A
7C
00
ENDCHAR
STARTCHAR 054
ENCODING 54
SWIDTH 576 0
DWIDTH 8 0
BBX 8 14 0 -5
BITMAP
7C
B8
C0
C0
C0
B8
7C
BA
C6
C6
C6
BA
7C
00
ENDCHAR
STARTCHAR 055
ENCODING 55
SWIDTH 576 0
DWIDTH 8 0
BBX 8 14 0 -5
BITMAP
7C
3A
06
06
06
02
00
02
06
06
06
02
00
00
ENDCHAR
STARTCHAR 056
ENCODING 56
SWIDTH 576 0
DWIDTH 8 0
BBX 8 14 0 -5
BITMAP
7C
BA
C6
C6
C6
BA
7C
BA
C6
C6
C6
BA
7C
00
ENDCHAR
STARTCHAR 057
ENCODING 57
SWIDTH 576 0
DWIDTH 8 0
BBX 8 14 0 -5
BITMAP
7C
BA
C6
C6
C6
BA
7C
3A
06
06
06
3A
7C
00
ENDCHAR
STARTCHAR 058
ENCODING 58
SWIDTH 576 0
DWIDTH 8 0
BBX 8 14 0 -5
BITMAP
00
00
38
38
38
00
00
00
38
38
38
00
00
00
ENDCHAR
STARTCHAR 059
ENCODING 59
SWIDTH 576 0
DWIDTH 8 0
BBX 8 14 0 -5
BITMAP
04
0A
04
00
00
00
00
00
00
00
00
00
00
00
ENDCHAR
STARTCHAR 060
ENCODING 60
SWIDTH 576 0
DWIDTH 8 0
BBX 8 14 0 -5
BITMAP
7C
B8
C0
C0
C0
80
00
80
C0
C0
C0
B8
7C
00
ENDCHAR
ENDFONT
